<?xml version="1.0" encoding="utf-8"?>
<!-- Generator: Adobe Illustrator 16.0.0, SVG Export Plug-In . SVG Version: 6.00 Build 0)  -->
<!DOCTYPE svg PUBLIC "-//W3C//DTD SVG 1.1//EN" "http://www.w3.org/Graphics/SVG/1.1/DTD/svg11.dtd">
<svg version="1.1" id="Ebene_1" xmlns="http://www.w3.org/2000/svg" xmlns:xlink="http://www.w3.org/1999/xlink" x="0px" y="0px"
	 width="512px" height="512px" viewBox="0 0 512 512" enable-background="new 0 0 512 512" xml:space="preserve">
<g>
	<polygon points="393.338,116.755 376.643,116.755 376.643,158.028 334.838,158.028 334.838,174.726 376.643,174.726 
		376.643,216.53 393.338,216.53 393.338,174.726 435.141,174.726 435.141,158.028 393.338,158.028 	"/>
	<path d="M510.5,166.642c0-69.207-56.304-125.51-125.511-125.51c-55.798,0-103.2,36.604-119.477,87.057h-52.781v-21.044
		c0-9.643-3.316-17.9-9.944-24.761c-6.631-6.872-14.604-10.306-23.912-10.306H165.33c-9.313,0-17.28,3.434-23.916,10.306
		c-6.632,6.862-9.945,15.118-9.945,24.761v21.044h-27.086c-7.338,0-13.688,2.781-19.043,8.329
		c-5.363,5.552-8.046,12.126-8.046,19.728v280.551c0,7.597,2.683,14.174,8.046,19.729c5.354,5.55,11.705,8.324,19.043,8.324h297.965
		c7.338,0,13.686-2.774,19.047-8.324c5.363-5.557,8.04-12.134,8.04-19.729V284.016C476.769,266.032,510.5,220.206,510.5,166.642z
		 M260.132,212.354h7.967c10.475,26.692,29.839,48.957,54.431,63.125h-62.397V212.354z M165.328,436.796h-60.947v-63.124h60.947
		V436.796z M165.328,359.643h-60.947v-70.138h60.947V359.643z M165.328,275.479h-60.947v-63.125h60.947V275.479z M160.566,175.202
		c-1.34-1.391-2.008-3.031-2.008-4.931v-63.127c0-1.901,0.668-3.541,2.008-4.93c1.344-1.388,2.931-2.082,4.765-2.082h13.545
		c1.831,0,3.424,0.694,4.759,2.082c1.341,1.389,2.012,3.03,2.012,4.93v63.127c0,1.901-0.671,3.541-2.012,4.931
		c-1.335,1.389-2.928,2.084-4.759,2.084H165.33C163.494,177.286,161.907,176.591,160.566,175.202z M246.592,436.796h-67.719v-63.124
		h67.719V436.796z M246.592,359.643h-67.719v-70.138h67.719V359.643z M246.592,275.479h-67.719v-63.125h67.719V275.479z
		 M327.855,436.796h-67.723v-63.124h67.723V436.796z M327.855,359.643h-67.723v-70.138h67.723V359.643z M402.345,436.796h-60.946
		v-63.124h60.946V436.796z M402.345,359.643h-60.946v-70.138h17.902c8.295,1.732,16.887,2.647,25.688,2.647
		c5.889,0,11.681-0.417,17.355-1.205V359.643z M384.99,287.152c-66.449,0-120.51-54.061-120.51-120.51s54.061-120.51,120.51-120.51
		c66.45,0,120.511,54.061,120.511,120.51S451.44,287.152,384.99,287.152z"/>
</g>
</svg>
