<?xml version="1.0" encoding="utf-8"?>
<!-- Generator: Adobe Illustrator 16.0.0, SVG Export Plug-In . SVG Version: 6.00 Build 0)  -->
<!DOCTYPE svg PUBLIC "-//W3C//DTD SVG 1.1//EN" "http://www.w3.org/Graphics/SVG/1.1/DTD/svg11.dtd">
<svg version="1.1" id="Ebene_3" xmlns="http://www.w3.org/2000/svg" xmlns:xlink="http://www.w3.org/1999/xlink" x="0px" y="0px"
	 width="512px" height="512px" viewBox="0 0 512 512" enable-background="new 0 0 512 512" xml:space="preserve">
<polygon points="413.815,140.302 400.031,140.302 400.031,174.389 365.507,174.389 365.507,188.173 400.031,188.173 
	400.031,222.694 413.815,222.694 413.815,188.173 448.334,188.173 448.334,174.389 413.815,174.389 "/>
<g>
	<path d="M181.592,399.454c-14.15,0-25.623,11.469-25.623,25.623c0,14.153,11.473,25.627,25.623,25.627
		c14.158,0,25.627-11.474,25.627-25.627C207.219,410.923,195.75,399.454,181.592,399.454z"/>
	<circle cx="318.27" cy="425.079" r="25.625"/>
	<path d="M406.921,77.419c-57.39,0-104.079,46.689-104.079,104.079c0,4.107,0.247,8.158,0.712,12.143H92.438
		c-5.616-22.51-11.193-45.031-16.819-67.539H2.21v17.089h60.06c20.148,82.691,42.078,164.956,61.934,247.719H371.92
		c10.706-37.425,20.379-70.832,30.486-105.437c1.498,0.063,3.002,0.104,4.515,0.104c57.39,0,104.079-46.689,104.079-104.079
		S464.311,77.419,406.921,77.419z M359.107,373.828h-221.56L96.704,210.723h210.32c10.676,36.428,40.775,64.634,78.274,72.589
		L359.107,373.828z M406.921,280.577c-54.633,0-99.079-44.447-99.079-99.079s44.446-99.079,99.079-99.079S506,126.866,506,181.498
		S461.554,280.577,406.921,280.577z"/>
</g>
</svg>
