<?xml version="1.0" encoding="utf-8"?>
<!-- Generator: Adobe Illustrator 24.0.0, SVG Export Plug-In . SVG Version: 6.00 Build 0)  -->
<svg version="1.1" id="Ebene_2_1_" xmlns="http://www.w3.org/2000/svg" xmlns:xlink="http://www.w3.org/1999/xlink" x="0px" y="0px"
	 viewBox="0 0 512 512" style="enable-background:new 0 0 512 512;" xml:space="preserve">
<g>
	<g>
		<path d="M132.8,214.1c9.4-9.4,20.3-17.9,31.3-24.3c7.9-5,16.4-9.4,24.3-12.9l17.4-17.4c2.5-2.5,2.5-6.9,0-9.4s-6.9-2.5-9.4,0
			l-42.7,42.7l-9.9-9.9l42.7-42.7c2.5-2.5,2.5-6.9,0-9.4c-2.5-2.5-6.9-2.5-9.4,0l-42.7,42.7l-9.9-9.9l42.7-42.7
			c2.5-2.5,2.5-6.9,0-9.4s-6.9-2.5-9.4,0L115,154.1l-9.9-9.9l42.7-42.7c2.5-2.5,2.5-6.9,0-9.4s-6.9-2.5-9.4,0l-42.7,42.7
			c-4.5-4.5-4.5-11.9,0-16.9l31.8-31.3c6.5-6.5,6.5-16.4,0-22.8l-57.6,57.1c-8.4,8.4-8.4,21.8,0,29.8L132.8,214.1z"/>
	</g>
	<g>
		<path d="M425.2,384.4l-31.8,31.8c-4.5,4.5-12.4,4.5-16.9,0l-1-1l42.7-42.7c2.5-2.5,2.5-6.9,0-9.4c-2.5-2.5-6.9-2.5-9.4,0
			l-42.7,42.7l-9.9-9.9l42.7-42.7c2.5-2.5,2.5-6.9,0-9.4s-6.9-2.5-9.4,0l-42.7,42.7l-9.9-9.9l42.7-42.7c2.5-2.5,2.5-6.9,0-9.4
			s-6.9-2.5-9.4,0L327.4,367l-9.9-9.9l42.7-42.7c2.5-2.5,2.5-6.9,0-9.4c-2.5-2.5-6.9-2.5-9.4,0l-42.7,42.7l-9.9-9.9l42.7-42.7
			c2.5-2.5,2.5-6.9,0-9.4c-0.5-0.5-1-1-1.5-1c-5.5,3.5-10.9,6.5-16.4,9.9l-34.2,34.2l-9.9-9.9l6.9-6.9c-1,0.5-1.5,0.5-2.5,1
			c-3,1.5-6,2.5-8.9,4c-10.4,4.5-18.9,8.4-26.8,11.9l113.2,113.2c8.4,8.4,21.8,8.4,29.8,0l58.1-57.6
			C442.1,377.9,431.6,377.9,425.2,384.4z"/>
	</g>
	<g>
		<path d="M368.6,66.2c0,0-0.5,1.5-1.5,4.5c-1,3-2.5,7.4-4.5,12.9c-2,5.5-5,11.9-8.4,19.4c-2,3.5-4,7.4-6,11.4
			c-2.5,4-5,7.9-7.9,12.4c-2.5,4.5-6,8.4-9.4,12.9c-3.5,4.5-7.4,8.4-11.4,12.9c-8.4,8.4-17.9,16.9-28.3,24.8
			c-10.9,7.4-22.3,14.4-34.7,19.9c-11.9,6-24.3,10.9-36.2,15.9c-11.9,5-22.8,9.9-33.3,15.4s-19.4,11.9-28.3,18.9
			c-4.5,3.5-7.9,7.4-11.9,10.9c-3.5,4-7.4,7.4-10.9,11.9c-3.5,4-6.5,7.9-9.4,11.9c-1.5,2-3,4-4.5,6c-1.5,2-2.5,4-4,6
			c-5.5,7.9-9.9,15.4-13.9,21.8c-4,6.9-7.4,12.9-10.4,17.9c-2.5,5-5,8.9-6.5,11.4s-2.5,4-2.5,4s0-1.5,0.5-5c0.5-3,1-7.4,2-13.4
			c1-6,2.5-12.9,4.5-20.8c2.5-7.9,4.5-16.9,8.4-26.3c1-2.5,2-5,3-7.4s2.5-5,3.5-7.4c2.5-5,5-9.9,7.9-15.4c1.5-2.5,3-5,5-7.9
			c2-2.5,3.5-5,5.5-7.9c4-5,7.9-9.9,12.9-14.9c9.4-9.4,20.3-18.4,32.3-25.8c11.9-7.4,24.3-12.9,36.7-18.4c11.9-5,23.8-9.9,35.7-14.4
			c11.4-5,21.8-9.9,31.8-15.4s18.9-11.4,27.3-17.9c4-3.5,8.4-6.5,11.9-9.4c3.5-3.5,7.4-6.5,10.9-9.9c3.5-3.5,6.9-6.5,9.9-9.4
			c3-3,6-6,8.4-8.9c5.5-6,9.9-10.9,13.9-14.9c3.5-4.5,6.9-7.9,8.9-10.4C367.6,67.2,368.6,66.2,368.6,66.2z"/>
	</g>
	<g>
		<path d="M392.9,113.9c0,0-0.5,1.5-1.5,4.5c-1,3-2.5,7.4-4.5,12.9c-2,5.5-5,11.9-8.4,19.4c-2,3.5-4,7.4-6,11.4
			c-2.5,4-5,7.9-7.9,12.4c-2.5,4.5-6,8.4-9.4,12.9c-3.5,4.5-7.4,8.4-11.4,12.9c-8.4,8.4-17.9,16.9-28.3,24.8
			c-10.9,7.4-22.3,14.4-34.7,19.9c-11.9,6-24.3,10.9-36.2,15.9c-11.9,5-22.8,9.9-33.3,15.4c-10.4,5.5-19.4,11.9-28.3,18.9
			c-4.5,3.5-7.9,7.4-11.9,10.9c-3.5,4-7.4,7.4-10.9,11.9c-3.5,4-6.5,7.9-9.4,11.9c-1.5,2-3,4-4.5,6c-1.5,2-2.5,4-4,6
			c-5.5,7.9-9.9,15.4-13.9,21.8c-4,6.9-7.4,12.9-10.4,17.9c-2.5,5-5,8.9-6.5,11.4c-1.5,2.5-2.5,4-2.5,4s0-1.5,0.5-5
			c0.5-3,1-7.4,2-13.4s2.5-12.9,4.5-20.8c2.5-7.9,4.5-16.9,8.4-26.3c1-2.5,2-5,3-7.4c1-2.5,2.5-5,3.5-7.4c2.5-5,5-9.9,7.9-15.4
			c1.5-2.5,3-5,5-7.9c2-2.5,3.5-5,5.5-7.9c4-5,7.9-9.9,12.9-14.9c9.4-9.4,20.3-18.4,32.3-25.8s24.3-12.9,36.7-18.4
			c11.9-5,23.8-9.9,35.7-14.4c11.4-5,21.8-9.9,31.8-15.4c9.9-5.5,18.9-11.4,27.3-17.9c4-3.5,8.4-6.5,11.9-9.4
			c3.5-3.5,7.4-6.5,10.9-9.9c3.5-3.5,6.9-6.5,9.9-9.4c3-3,6-6,8.4-8.9c5.5-6,9.9-10.9,13.9-14.9c3.5-4.5,6.9-7.9,8.9-10.4
			C391.9,114.9,392.9,113.9,392.9,113.9z"/>
	</g>
	<g>
		<path d="M418.2,159.5c0,0-0.5,1.5-1.5,4.5s-2.5,7.4-4.5,12.9c-2,5.5-5,11.9-8.4,19.4c-2,3.5-4,7.4-6,11.4c-2.5,4-5,7.9-7.9,12.4
			c-2.5,4.5-6,8.4-9.4,12.9c-3.5,4.5-7.4,8.4-11.4,12.9c-8.4,8.4-17.9,16.9-28.3,24.8c-10.9,7.4-22.3,14.4-34.7,19.9
			c-11.9,6-24.3,10.9-36.2,15.9c-11.9,5-22.8,9.9-33.3,15.4s-19.4,11.9-28.3,18.9c-4.5,3.5-7.9,7.4-11.9,10.9
			c-3.5,4-7.4,7.4-10.9,11.9c-3.5,4-6.5,7.9-9.4,11.9c-1.5,2-3,4-4.5,6c-1.5,2-2.5,4-4,6c-5.5,7.9-9.9,15.4-13.9,21.8
			c-4,6.9-7.4,12.9-10.4,17.9c-2.5,5-5,8.9-6.5,11.4c-1.5,2.5-2.5,4-2.5,4s0-1.5,0.5-5c0.5-3,1-7.4,2-13.4c1-6,2.5-12.9,4.5-20.8
			c2.5-7.9,4.5-16.9,8.4-26.3c1-2.5,2-5,3-7.4c1-2.5,2.5-5,3.5-7.4c2.5-5,5-9.9,7.9-15.4c1.5-2.5,3-5,5-7.9c2-2.5,3.5-5,5.5-7.9
			c4-5,7.9-9.9,12.9-14.9c9.4-9.4,20.3-18.4,32.3-25.8s24.3-12.9,36.7-18.4c11.9-5,23.8-9.9,35.7-14.4c11.4-5,21.8-9.9,31.8-15.4
			c9.9-5.5,18.9-11.4,27.3-17.9c4-3.5,8.4-6.5,11.9-9.4c3.5-3.5,7.4-6.5,10.9-9.9c3.5-3.5,6.9-6.5,9.9-9.4c3-3,6-6,8.4-8.9
			c5.5-6,9.9-10.9,13.9-14.9c3.5-4.5,6.9-7.9,8.9-10.4C417.2,160.5,418.2,159.5,418.2,159.5z"/>
	</g>
</g>
</svg>
