<?xml version="1.0" encoding="utf-8"?>
<!-- Generator: Adobe Illustrator 24.0.0, SVG Export Plug-In . SVG Version: 6.00 Build 0)  -->
<svg version="1.1" id="Ebene_2_1_" xmlns="http://www.w3.org/2000/svg" xmlns:xlink="http://www.w3.org/1999/xlink" x="0px" y="0px"
	 viewBox="0 0 512 512" style="enable-background:new 0 0 512 512;" xml:space="preserve">
<g>
	<path d="M462.9,284.8c-1.9-2.6-4.8-4.1-8.1-4.1H431c1.3-44-27.9-65.2-31.3-67.6c-2.7-1.7-5.9-2.1-8.9-1c-3,1.1-5.2,3.6-6,6.7
		c0,0.1-2.6,8.7-9.1,16.5c-8.2,9.9-18.5,13.5-31.3,11c-58.4-11.4-83.3-10.9-95.3,1.9c-8.6,9.2-7.5,22.6-5.6,32.5h-37.9v-60
		c0-38.3-16.3-64.1-23.2-75.1c-1.2-1.9-2.2-3.5-2.7-4.5V57.3c0-5.5-4.5-9.9-10-9.9H83.2c-5.5,0-10,4.5-10,9.9V141
		c-0.5,1-1.5,2.6-2.7,4.5c-7,11-23.2,36.9-23.2,75.2v234.1c0,5.5,4.5,10,10,10h138.3c5.5,0,10-4.5,10-10V346.3l41.2,111.8
		c1.4,3.9,5.2,6.5,9.4,6.5h146.9c4.4,0,8.2-2.8,9.5-7l51.9-164.1C465.2,290.6,464.7,287.4,462.9,284.8z M93.2,81.9V67.3h66.5v14.7
		H93.2z M93.2,133.8v-32h66.5v32H93.2z M67.2,226.3c-0.2-9.7-0.7-35.6,16-63.2l5.7-9.4h75.1c0.5,0.9,1.2,2,2.1,3.5
		c5.9,9.3,19.6,31.2,19.6,63.6v224.1H67.2l0-214.6C67.2,229.4,67.2,228.1,67.2,226.3z M263.7,261.7c5.8-6.2,31.6-4.8,76.9,4.1
		c23.8,4.6,44.5-5.4,57.2-27.5c6.8,8.4,14.1,22.2,13.4,42.4H263.8C261.5,270.5,261.4,264.1,263.7,261.7z M280.7,403
		c0,5.5,4.5,10,10,10h115.2l-10.1,32H263l-30.9-83.8h119c5.5,0,10-4.5,10-9.9c0-5.5-4.5-10-10-10H224.8l-14.9-40.6h231.4L412,393
		c-1.6-0.1-6.3,0-21.7,0c-16.9,0-46.7,0-99.7,0C285.1,393,280.7,397.5,280.7,403z"/>
	<path d="M282,222.8c5.5,0,10-4.5,10-10v-16h14.7v16c0,5.5,4.5,10,10,10s10-4.5,10-10v-16h14.7v16c0,5.5,4.5,10,10,10s10-4.5,10-10
		v-43.2c0-20.7-14.5-38.7-34.6-43.4v-69c0-5.5-4.5-9.9-10-9.9s-10,4.5-10,9.9v69c-20.1,4.6-34.6,22.7-34.6,43.4v43.3
		C272,218.3,276.5,222.8,282,222.8z M291.9,176.9v-7.3c0-13.6,11.1-24.6,24.6-24.6c13.6,0,24.6,11.1,24.6,24.6v7.3H291.9z"/>
</g>
</svg>
