<?xml version="1.0" encoding="utf-8"?>
<!-- Generator: Adobe Illustrator 24.0.0, SVG Export Plug-In . SVG Version: 6.00 Build 0)  -->
<svg version="1.1" id="Ebene_2_1_" xmlns="http://www.w3.org/2000/svg" xmlns:xlink="http://www.w3.org/1999/xlink" x="0px" y="0px"
	 viewBox="0 0 512 512" style="enable-background:new 0 0 512 512;" xml:space="preserve">
<style type="text/css">
	.st0{fill:none;}
</style>
<g>
	<g>
		<defs>
			<path id="SVGID_1_" d="M361.2,386.1c-2.5,0-5-0.9-6.9-2.8l-37.1-37.1v-87.3c0-5.4,4.4-9.8,9.8-9.8c5.4,0,9.8,4.4,9.8,9.8V338
				l31.3,31.3c3.8,3.8,3.8,10,0,13.8C366.2,385.1,363.7,386.1,361.2,386.1"/>
		</defs>
		<use xlink:href="#SVGID_1_"  style="overflow:visible;fill-rule:evenodd;clip-rule:evenodd;"/>
		<clipPath id="SVGID_2_">
			<use xlink:href="#SVGID_1_"  style="overflow:visible;"/>
		</clipPath>
	</g>
	<g>
		<path class="st0" d="M146.5,239.7v65.6h52.2c2.7-9.5,6.5-18.6,11.1-27.2v-38.4H146.5z"/>
		<path class="st0" d="M241.4,239.7h-18.9v19.4C228.1,252,234.5,245.5,241.4,239.7z"/>
		<path class="st0" d="M146.5,377.4h51.7c-3.1-11.2-4.7-23.1-4.7-35.3c0-8.1,0.8-16,2.1-23.7h-49.1V377.4z"/>
		<path class="st0" d="M355.4,211.7v-44.2h-57v44.2c9.2-2,18.7-3.1,28.5-3.1C336.7,208.7,346.3,209.7,355.4,211.7z"/>
		<path class="st0" d="M285.8,167.6h-63.3v59h37.7c8-4.7,16.6-8.5,25.6-11.4V167.6z"/>
		<rect x="76.9" y="167.6" class="st0" width="57" height="59"/>
		<rect x="76.9" y="239.7" class="st0" width="57" height="65.6"/>
		<path class="st0" d="M151,132.8c1.3-1.3,1.9-2.8,1.9-4.6v-59c0-1.8-0.6-3.3-1.9-4.6c-1.3-1.3-2.7-1.9-4.5-1.9h-12.7
			c-1.7,0-3.2,0.6-4.5,1.9c-1.3,1.3-1.9,2.8-1.9,4.6v59c0,1.8,0.6,3.3,1.9,4.6c1.3,1.3,2.7,1.9,4.5,1.9h12.7
			C148.3,134.8,149.7,134.1,151,132.8z"/>
		<path class="st0" d="M285.8,134.8h12.7c1.7,0,3.2-0.6,4.5-1.9c1.3-1.3,1.9-2.8,1.9-4.6v-59c0-1.8-0.6-3.3-1.9-4.6
			c-1.3-1.3-2.7-1.9-4.5-1.9h-12.7c-1.7,0-3.2,0.6-4.5,1.9c-1.3,1.3-1.9,2.8-1.9,4.6v59c0,1.8,0.6,3.3,1.9,4.6
			C282.6,134.1,284.1,134.8,285.8,134.8z"/>
		<rect x="146.5" y="167.6" class="st0" width="63.3" height="59"/>
		<rect x="76.9" y="318.4" class="st0" width="57" height="59"/>
		<path d="M380.8,220V115.1c0-7.1-2.5-13.2-7.5-18.4c-5-5.2-10.9-7.8-17.8-7.8h-25.3V69.2c0-9-3.1-16.7-9.3-23.2
			c-6.2-6.4-13.7-9.6-22.4-9.6h-12.7c-8.7,0-16.2,3.2-22.4,9.6c-6.2,6.4-9.3,14.1-9.3,23.2v19.7h-76V69.2c0-9-3.1-16.7-9.3-23.2
			c-6.2-6.4-13.7-9.6-22.4-9.6h-12.7c-8.7,0-16.2,3.2-22.4,9.6c-6.2,6.4-9.3,14.1-9.3,23.2v19.7H76.9c-6.9,0-12.8,2.6-17.8,7.8
			c-5,5.2-7.5,11.3-7.5,18.4v262.3c0,7.1,2.5,13.2,7.5,18.4c5,5.2,10.9,7.8,17.8,7.8h131.6c22.2,42.8,66.9,72,118.4,72
			c73.7,0,133.5-59.7,133.5-133.5C460.4,287.6,427.7,240.7,380.8,220z M355.4,167.6v44.2c-9.2-2-18.7-3.1-28.5-3.1
			c-9.8,0-19.3,1.1-28.5,3.1v-44.2H355.4z M279.5,69.2c0-1.8,0.6-3.3,1.9-4.6c1.3-1.3,2.7-1.9,4.5-1.9h12.7c1.7,0,3.2,0.6,4.5,1.9
			c1.3,1.3,1.9,2.8,1.9,4.6v59c0,1.8-0.6,3.3-1.9,4.6c-1.3,1.3-2.7,1.9-4.5,1.9h-12.7c-1.7,0-3.2-0.6-4.5-1.9
			c-1.3-1.3-1.9-2.8-1.9-4.6V69.2z M222.5,167.6h63.3v47.6c-9,2.9-17.6,6.8-25.6,11.4h-37.7V167.6z M222.5,239.7h18.9
			c-6.9,5.8-13.3,12.3-18.9,19.4V239.7z M209.8,167.6v59h-63.3v-59H209.8z M133.9,377.4h-57v-59h57V377.4z M133.9,305.3h-57v-65.6
			h57V305.3z M133.9,226.6h-57v-59h57V226.6z M129.4,132.8c-1.3-1.3-1.9-2.8-1.9-4.6v-59c0-1.8,0.6-3.3,1.9-4.6
			c1.3-1.3,2.7-1.9,4.5-1.9h12.7c1.7,0,3.2,0.6,4.5,1.9c1.3,1.3,1.9,2.8,1.9,4.6v59c0,1.8-0.6,3.3-1.9,4.6c-1.3,1.3-2.7,1.9-4.5,1.9
			h-12.7C132.2,134.8,130.7,134.1,129.4,132.8z M146.5,377.4v-59h49.1c-1.4,7.7-2.1,15.6-2.1,23.7c0,12.2,1.7,24,4.7,35.3H146.5z
			 M198.7,305.3h-52.2v-65.6h63.3v38.4C205.2,286.6,201.4,295.7,198.7,305.3z M407.5,422.6c-10.5,10.5-22.6,18.7-36.2,24.4
			c-14,5.9-29,8.9-44.3,8.9c-15.4,0-30.3-3-44.3-8.9c-13.6-5.7-25.8-14-36.2-24.4c-5.8-5.8-10.9-12.2-15.2-19
			c-3.5-5.5-6.6-11.2-9.2-17.2c-5.9-14-8.9-29-8.9-44.3c0-15.3,3-30.3,8.9-44.3c0.1-0.3,0.3-0.7,0.5-1c5.7-13.2,13.7-25,23.9-35.2
			c9.1-9.1,19.5-16.4,31-21.9c1.7-0.8,3.4-1.8,5.2-2.5c14-5.9,28.9-8.9,44.3-8.9c15.4,0,30.3,3,44.3,8.9c3.3,1.4,6.4,2.9,9.5,4.6
			c9.8,5.3,18.8,11.9,26.7,19.9c10.5,10.5,18.7,22.6,24.4,36.2c5.9,14,8.9,29,8.9,44.3c0,15.3-3,30.3-8.9,44.3
			C426.2,400,417.9,412.2,407.5,422.6z"/>
	</g>
</g>
</svg>
