<svg id="Ebene_1" data-name="Ebene 1" xmlns="http://www.w3.org/2000/svg" viewBox="0 0 44.23 32"><defs><style>.cls-1{fill:none;}</style></defs><title>Keskin Icons</title><polygon class="cls-1" points="12.75 9.96 15.94 22.68 33.7 22.68 37.39 9.96 12.75 9.96"/><path d="M40.14,7.9a.39.39,0,0,0-.32-.16H12.2l-1.32-5.3a.42.42,0,0,0-.39-.3H4.4a.4.4,0,0,0-.4.4V4a.4.4,0,0,0,.4.4H9.07c.75,3.07,1.54,6.18,2.31,9.18.91,3.62,1.87,7.36,2.75,11.05a.4.4,0,0,0,.39.31h4.09a2.52,2.52,0,1,0,1.34,0h10a2.53,2.53,0,1,0,1.34,0h3.78a.41.41,0,0,0,.39-.29c1.38-4.84,2.7-9.33,4-13.68l.79-2.68A.4.4,0,0,0,40.14,7.9ZM15.94,22.69,12.75,10H37.39L33.7,22.69Z"/></svg>