<?xml version="1.0" encoding="utf-8"?>
<!-- Generator: Adobe Illustrator 16.0.0, SVG Export Plug-In . SVG Version: 6.00 Build 0)  -->
<!DOCTYPE svg PUBLIC "-//W3C//DTD SVG 1.1//EN" "http://www.w3.org/Graphics/SVG/1.1/DTD/svg11.dtd">
<svg version="1.1" id="Ebene_2" xmlns="http://www.w3.org/2000/svg" xmlns:xlink="http://www.w3.org/1999/xlink" x="0px" y="0px"
	 width="512px" height="512px" viewBox="0 0 512 512" enable-background="new 0 0 512 512" xml:space="preserve">
<g>
	<defs>
		<path id="SVGID_1_" d="M431.438,156.242v280.557c0,7.599-2.682,14.178-8.044,19.729c-5.356,5.556-11.708,8.325-19.045,8.325
			h-297.97c-7.34,0-13.685-2.77-19.047-8.325c-5.363-5.552-8.045-12.131-8.045-19.729V156.242c0-7.596,2.682-14.17,8.045-19.726
			c5.362-5.556,11.707-8.327,19.047-8.327h27.089v-21.041c0-9.648,3.314-17.905,9.946-24.771
			c6.629-6.869,14.603-10.302,23.913-10.302h13.548c9.309,0,17.278,3.433,23.908,10.302c6.634,6.865,9.946,15.122,9.946,24.771
			v21.041h81.266v-21.041c0-9.648,3.319-17.905,9.946-24.771c6.637-6.869,14.606-10.302,23.915-10.302h13.545
			c9.313,0,17.28,3.433,23.914,10.302c6.632,6.865,9.948,15.122,9.948,24.771v21.041h27.085c7.337,0,13.688,2.771,19.045,8.327
			C428.756,142.072,431.438,148.646,431.438,156.242z M350.172,170.275v-63.127c0-1.903-0.668-3.547-2.011-4.936
			c-1.339-1.389-2.925-2.084-4.76-2.084h-13.545c-1.833,0-3.425,0.695-4.76,2.084c-1.34,1.389-2.009,3.032-2.009,4.936v63.127
			c0,1.898,0.669,3.537,2.009,4.926c1.335,1.388,2.927,2.083,4.76,2.083h13.545c1.835,0,3.421-0.695,4.76-2.083
			C349.504,173.813,350.172,172.174,350.172,170.275z M343.401,275.483h60.947v-63.127h-60.947V275.483z M262.135,275.483h67.722
			v-63.127h-67.722V275.483z M343.401,359.646h60.947v-70.135h-60.947V359.646z M187.646,170.275v-63.127
			c0-1.903-0.671-3.547-2.012-4.936c-1.34-1.389-2.929-2.084-4.759-2.084h-13.548c-1.837,0-3.42,0.695-4.764,2.084
			c-1.338,1.389-2.009,3.032-2.009,4.936v63.127c0,1.898,0.671,3.537,2.009,4.926c1.344,1.388,2.927,2.083,4.764,2.083h13.548
			c1.83,0,3.419-0.695,4.759-2.083C186.975,173.813,187.646,172.174,187.646,170.275z M262.135,359.646h67.722v-70.135h-67.722
			V359.646z M343.401,436.799h60.947v-63.126h-60.947V436.799z M180.875,275.483h67.719v-63.127h-67.719V275.483z M262.135,436.799
			h67.722v-63.126h-67.722V436.799z M106.379,275.483h60.948v-63.127h-60.948V275.483z M180.875,359.646h67.719v-70.135h-67.719
			V359.646z M106.379,359.646h60.948v-70.135h-60.948V359.646z M180.875,436.799h67.719v-63.126h-67.719V436.799z M106.379,436.799
			h60.948v-63.126h-60.948V436.799z"/>
	</defs>
	<use xlink:href="#SVGID_1_"  overflow="visible"/>
</g>
</svg>
